<svg width="192" height="51" viewBox="0 0 192 51" fill="none" xmlns="http://www.w3.org/2000/svg">
<path d="M65.4473 42V9.34375H78.5098V15.6523H72.0898V22.0166H78.25V28.1582H72.0898V35.6357H78.9365V42H65.4473ZM84.1133 42L80.0869 9.3252H86.3027L88.6963 31.5537L90.8301 9.3252H97.0459L93.0195 42H84.1133ZM97.2871 42L100.441 9.34375H111.519L114.617 42H108.438L107.975 36.7305H104.041L103.633 42H97.2871ZM104.505 31.5166H107.474L106.045 14.9102H105.748L104.505 31.5166ZM116.621 42V9.34375H123.338L126.344 24.9854V9.34375H132.652V42H126.27L123.004 25.6719V42H116.621ZM138.349 42V15.6152H134.471V9.34375H148.758V15.6152H144.88V42H138.349ZM150.576 42V9.34375H159.427C161.802 9.34375 163.527 9.92513 164.604 11.0879C165.692 12.2383 166.236 14.1432 166.236 16.8027V18.2314C166.236 19.7653 165.958 21.0085 165.401 21.9609C164.857 22.9134 164.022 23.5381 162.896 23.835C164.368 24.2061 165.352 25.0781 165.847 26.4512C166.354 27.8118 166.607 29.4756 166.607 31.4424C166.607 33.5576 166.41 35.4069 166.014 36.9902C165.618 38.5736 164.9 39.8044 163.861 40.6826C162.822 41.5609 161.344 42 159.427 42H150.576ZM156.959 21.6455H158.295C158.901 21.6455 159.291 21.4105 159.464 20.9404C159.637 20.4704 159.724 19.9076 159.724 19.252V15.9678C159.724 14.9163 159.26 14.3906 158.332 14.3906H156.959V21.6455ZM157.608 36.248C159.303 36.248 160.15 35.444 160.15 33.8359V29.7539C160.15 28.8262 160.008 28.0964 159.724 27.5645C159.451 27.0202 158.932 26.748 158.165 26.748H156.959V36.2109C157.231 36.2357 157.448 36.248 157.608 36.248ZM168.463 42V9.34375H174.771V42H168.463ZM176.516 42V36.0625L183.993 15.3555H177.239V9.34375H190.877V15.0586L183.27 35.9883H190.562V42H176.516Z" fill="white"/>
<g clip-path="url(#clip0_2008_45)">
<path fill-rule="evenodd" clip-rule="evenodd" d="M28.6944 21.6006L31.7049 0H19.2686L22.3056 21.6006C23.1701 20.8691 24.2963 20.4479 25.4978 20.4479C26.7037 20.4479 27.8299 20.8691 28.6944 21.6006Z" fill="#A0FFC2"/>
<path fill-rule="evenodd" clip-rule="evenodd" d="M28.6944 29.4307L31.7049 51.0047H19.2686L22.3056 29.4307C23.1701 30.1356 24.2963 30.5568 25.4978 30.5568C26.7037 30.5524 27.8299 30.1356 28.6944 29.4307Z" fill="#A0FFC2"/>
<path fill-rule="evenodd" clip-rule="evenodd" d="M30.5302 25.0055L47.9144 11.8642L39.1403 3.06348L25.999 20.4743C28.3799 20.7093 30.2908 22.6202 30.5302 25.0055Z" fill="#FFB84C"/>
<path fill-rule="evenodd" clip-rule="evenodd" d="M24.9789 30.5302L11.8598 47.941L3.06348 39.1403L20.4743 25.999C20.7093 28.4065 22.5936 30.2908 24.9789 30.5302Z" fill="#FFB84C"/>
<path fill-rule="evenodd" clip-rule="evenodd" d="M29.4038 28.6942L51.0044 31.7312V19.2949L29.4038 22.3054C30.1354 23.1699 30.5566 24.2961 30.5566 25.4976C30.5521 26.7035 30.1354 27.8297 29.4038 28.6942Z" fill="#ACAAFF"/>
<path fill-rule="evenodd" clip-rule="evenodd" d="M21.574 28.6942L0 31.7312V19.2949L21.574 22.3054C20.8691 23.1699 20.4479 24.2961 20.4479 25.4976C20.4479 26.7035 20.8691 27.8297 21.574 28.6942Z" fill="#ACAAFF"/>
<path fill-rule="evenodd" clip-rule="evenodd" d="M25.999 30.5302L39.1403 47.941L47.91 39.1447L30.5302 25.999C30.2908 28.4065 28.3799 30.2908 25.999 30.5302Z" fill="#5888b5"/>
<path fill-rule="evenodd" clip-rule="evenodd" d="M20.4743 25.0055L3.06348 11.8598L11.8598 3.06348L24.9789 20.4743C22.5936 20.7093 20.7093 22.6202 20.4743 25.0055Z" fill="#5888b5"/>
<circle cx="26" cy="26" r="6" fill="white"/>
</g>
<defs>
<clipPath id="clip0_2008_45">
<rect width="51" height="51" fill="white"/>
</clipPath>
</defs>
</svg>
